<?xml version="1.0" encoding="utf-8"?>
<!-- Generator: Adobe Illustrator 24.1.1, SVG Export Plug-In . SVG Version: 6.00 Build 0)  -->
<svg version="1.1" id="Layer_1" xmlns="http://www.w3.org/2000/svg" xmlns:xlink="http://www.w3.org/1999/xlink" x="0px" y="0px"
	 viewBox="0 0 32 32" style="enable-background:new 0 0 32 32;" xml:space="preserve">
<style type="text/css">
	.st0{fill-rule:evenodd;clip-rule:evenodd;fill:#1CA6F1;}
</style>
<path class="st0" d="M16,4C9.37,4,4,9.37,4,16c0,5.3,3.44,9.8,8.21,11.39c0.6,0.11,0.82-0.26,0.82-0.58c0-0.29-0.01-1.04-0.02-2.04
	c-3.34,0.72-4.04-1.61-4.04-1.61c-0.55-1.39-1.33-1.76-1.33-1.76c-1.09-0.74,0.08-0.73,0.08-0.73c1.2,0.09,1.84,1.23,1.84,1.23
	c1.07,1.84,2.81,1.3,3.49,1c0.11-0.78,0.42-1.3,0.76-1.61c-2.66-0.3-5.46-1.33-5.46-5.93c0-1.31,0.47-2.38,1.23-3.22
	c-0.12-0.3-0.54-1.52,0.12-3.18c0,0,1.01-0.32,3.3,1.23c0.96-0.27,1.98-0.4,3-0.4c1.02,0,2.05,0.14,3,0.4
	c2.29-1.55,3.3-1.23,3.3-1.23c0.66,1.65,0.25,2.88,0.12,3.18c0.77,0.84,1.23,1.91,1.23,3.22c0,4.61-2.8,5.62-5.48,5.92
	c0.43,0.37,0.81,1.1,0.81,2.22c0,1.61-0.01,2.9-0.01,3.29c0,0.32,0.21,0.7,0.82,0.58C24.57,25.8,28,21.3,28,16C28,9.37,22.63,4,16,4
	z"/>
</svg>
