<?xml version="1.0" encoding="utf-8"?>
<!-- Generator: Adobe Illustrator 24.1.1, SVG Export Plug-In . SVG Version: 6.00 Build 0)  -->
<svg version="1.1" id="Layer_1" xmlns="http://www.w3.org/2000/svg" xmlns:xlink="http://www.w3.org/1999/xlink" x="0px" y="0px"
	 viewBox="0 0 100 100" style="enable-background:new 0 0 100 100;" xml:space="preserve">
<style type="text/css">
	.st0{fill:none;stroke:#8BAFFF;stroke-miterlimit:10;}
</style>
<path class="st0" d="M78.5,23.5c8.28,16.57,1.57,36.72-15,45c-13.25,6.63-29.37,1.25-36-12c-5.3-10.6-1-23.5,9.6-28.8
	c8.48-4.24,18.8-0.8,23.04,7.68c3.39,6.79,0.64,15.04-6.14,18.43c-5.43,2.71-12.03,0.51-14.75-4.92c-2.17-4.34-0.41-9.62,3.93-11.8
	c3.47-1.74,7.7-0.33,9.44,3.15c1.39,2.78,0.26,6.16-2.52,7.55c-2.22,1.11-4.93,0.21-6.04-2.01"/>
</svg>
