<?xml version="1.0" encoding="utf-8"?>
<!-- Generator: Adobe Illustrator 24.1.1, SVG Export Plug-In . SVG Version: 6.00 Build 0)  -->
<svg version="1.1" id="Layer_1" xmlns="http://www.w3.org/2000/svg" xmlns:xlink="http://www.w3.org/1999/xlink" x="0px" y="0px"
	 viewBox="0 0 100 100" style="enable-background:new 0 0 100 100;" xml:space="preserve">
<style type="text/css">
	.st0{fill:none;stroke:#2569CC;stroke-miterlimit:10;}
</style>
<path class="st0" d="M96.5,64.79C80.2,87.12,48.32,92.42,25.28,76.63C6.84,63.99,2.47,39.26,15.51,21.4
	C25.94,7.1,46.35,3.71,61.09,13.82c11.8,8.09,14.6,23.91,6.25,35.35c-6.67,9.15-19.74,11.32-29.17,4.85
	c-7.55-5.18-9.34-15.3-4-22.62c4.27-5.85,12.63-7.24,18.67-3.1c4.83,3.31,5.98,9.79,2.56,14.48c-2.73,3.75-8.08,4.64-11.95,1.99
	c-3.09-2.12-3.83-6.27-1.64-9.27"/>
</svg>
