<?xml version="1.0" encoding="utf-8"?>
<!-- Generator: Adobe Illustrator 24.1.1, SVG Export Plug-In . SVG Version: 6.00 Build 0)  -->
<svg version="1.1" id="Layer_1" xmlns="http://www.w3.org/2000/svg" xmlns:xlink="http://www.w3.org/1999/xlink" x="0px" y="0px"
	 viewBox="0 0 100 100" style="enable-background:new 0 0 100 100;" xml:space="preserve">
<style type="text/css">
	.st0{fill:none;stroke:#16A1EF;stroke-miterlimit:10;}
</style>
<path class="st0" d="M85,55.6c-9.16,16.22-30.14,22.16-46.85,13.27c-13.37-7.12-18.26-23.41-10.93-36.38
	C33.08,22.1,46.51,18.3,57.2,23.99c8.56,4.55,11.69,14.98,7,23.29c-3.75,6.64-12.35,9.08-19.19,5.43c-5.48-2.92-7.48-9.59-4.48-14.9
	c2.4-4.25,7.9-5.81,12.28-3.48c3.5,1.87,4.79,6.14,2.87,9.54c-1.54,2.72-5.06,3.72-7.86,2.23c-2.24-1.19-3.06-3.93-1.83-6.1"/>
</svg>
